<svg xmlns="http://www.w3.org/2000/svg" version="1.1" xmlns:xlink="http://www.w3.org/1999/xlink" xmlns:svgjs="http://svgjs.dev/svgjs" width="100%" height="100%" viewBox="0 0 1000 600"><rect width="1000" height="600" x="0" y="0" fill="#191919"/><g><rect width="333.3333333333333" height="333.3333333333333" rx="13.333333333333334" ry="13.333333333333334" y="304.0864550019462" fill="#b88746" transform="matrix(0.44347594976508714,0,0,0.44347594976508714,0,91.23232075501559)" x="281.86428833007807"/><path d="M336.90410608917 541.8049605211742L315.0373311682058 541.8049605211742L373.62206564395564 404.71242997501827L405.54148292441863 404.71242997501827L464.8247393768103 541.8049605211742L440.52832279796127 541.8049605211742L386.3169433064043 405.3805814309366L391.115485580727 405.3805814309366L336.90410608917 541.8049605211742ZM368.82352336963294 545.7531282152372L297.75650487649943 545.7531282152372L297.75650487649943 527.3789631774825L368.82352336963294 527.3789631774825L368.82352336963294 545.7531282152372ZM429.1697480473494 492.6047169490048L348.93083229570027 492.6047169490048L353.9419682150879 476.20463575828165L424.37120577302665 476.20463575828165L429.1697480473494 492.6047169490048ZM482.0751951477932 545.7531282152372L410.5829893645298 545.7531282152372L410.5829893645298 527.3789631774825L482.0751951477932 527.3789631774825L482.0751951477932 545.7531282152372ZM431.78161282957564 413.8843272335338L347.38193573879863 413.8843272335338L347.38193573879863 395.7531263615677L431.78161282957564 395.7531263615677L431.78161282957564 413.8843272335338ZM557.7585327909082 531.1145372264806L538.9288099423002 531.1145372264806L538.9288099423002 424.8177146940159L557.7585327909082 424.8177146940159L557.7585327909082 531.1145372264806ZM599.30540514074 486.92542957369886L497.83749540332155 486.92542957369886L497.83749540332155 468.5512645359442L599.30540514074 468.5512645359442L599.30540514074 486.92542957369886Z " fill="#191919" transform="matrix(0.44347594976508714,0,0,0.44347594976508714,0,91.23232075501559)"/><path d="M770.7736984530196 545.5488853914089L770.7736984530196 545.5488853914089Q760.9118045824756 545.5488853914089 751.7793407319423 542.6895197129672Q742.646876881409 539.8593312353258 734.4480834564893 534.8116754968521Q726.2492900315696 529.7931969591789 719.1008758354652 522.8490231686775Q711.9524616393609 515.9048493781761 705.8836038728722 507.9394735596598L705.8836038728722 507.9394735596598L717.6420157954439 510.04023201729046L717.6420157954439 542.6019881105658L698.5309492711648 542.6019881105658L698.5309492711648 494.0803031794575L710.9020824105454 493.4384047618481Q716.5916365666286 501.6371981867678 723.4191015539283 508.02700516206113Q730.2465665412279 514.4459893381547 738.0077019541412 518.8517466590192Q745.7980145678549 523.2575039798835 753.7633903863713 525.5916800439174Q761.7579434056879 527.8966789071512 769.5190788186013 527.8966789071512L769.5190788186013 527.8966789071512Q777.309391432315 527.8966789071512 783.2907175964023 525.6792116463189Q789.2720437604896 523.490921586287 792.7441306557404 519.2894046710255Q796.216217550991 515.0878877557642 796.216217550991 509.3983335996811L796.216217550991 509.3983335996811Q796.216217550991 504.58409546761084 793.677801081354 500.58681895795246Q791.1685618125174 496.5895424482941 785.7124252628377 493.11745555304344Q780.2271115123575 489.64536865779274 771.415596870629 486.40669936894545Q762.6040822289003 483.13885287929776 749.9995314831164 479.78347478724874L749.9995314831164 479.78347478724874Q732.3473249988585 475.17347706078147 721.1141026906945 468.637784081486Q709.8517031817302 462.13126830299103 704.5998070376535 453.40728526366365Q699.3479108935768 444.71247942513673 699.3479108935768 433.97526953057996L699.3479108935768 433.97526953057996Q699.3479108935768 422.2168576080083 705.7668950696706 413.7262921750843Q712.1858792457642 405.20654954135995 722.5729627307159 400.47984301169095Q732.9600462156675 395.75313648202194 745.1561161502456 395.75313648202194L745.1561161502456 395.75313648202194Q757.9649073016326 395.75313648202194 768.7896487985906 399.95465339728327Q779.6143902955487 404.1561703125446 788.338373334876 412.675912946269Q797.0331791734029 421.16647837919294 803.131214140692 434.2086871369834L803.131214140692 434.2086871369834L792.2189410413326 431.8745110729493L792.2189410413326 398.70003376286496L811.5342479712147 398.70003376286496L811.5342479712147 446.579820276364L799.775836048643 447.2217186939734Q793.882041486957 435.8717875826077 786.1209060740437 428.31489257529734Q778.3597706611303 420.75799756798705 769.1981296097966 417.08167026713335Q760.0656657592632 413.40534296627965 749.9995314831164 413.40534296627965L749.9995314831164 413.40534296627965Q742.0049784637996 413.40534296627965 735.7027030909076 415.7103418295133Q729.4004277180155 418.015340692747 725.7241004171618 422.33356641121003Q722.0477731163081 426.6226149288726 722.0477731163081 432.92489030176466L722.0477731163081 432.92489030176466Q722.0477731163081 437.56406522903234 724.3527719795419 441.444632935489Q726.6577708427754 445.3252006419457 731.6178949788479 448.7972875371964Q736.5488419141199 452.2693744324471 744.2224457246319 455.30380331569137Q751.8668723343436 458.3674093997361 762.8083226345033 461.2851294797787L762.8083226345033 461.2851294797787Q779.8186307011516 465.9243044070464 792.306472643734 472.02233937433544Q804.8234917871167 478.091197140824 811.8551971800193 486.6109397745484Q818.886902572922 495.1306824082728 818.886902572922 507.29757514205045L818.886902572922 507.29757514205045Q818.886902572922 519.0559870646221 812.58462720003 527.6924385015482Q806.282351827138 536.2997127376739 795.3700787277787 540.9097104641412Q784.428628427619 545.5488853914089 770.7736984530196 545.5488853914089ZM915.7260320295359 545.5488853914089L915.7260320295359 545.5488853914089Q899.7661031917029 545.5488853914089 886.1111732171034 540.0635716409288Q872.4562432425041 534.6074350912492 862.2734001631554 524.6288324175034Q852.0905570838069 514.6502297437578 846.4010029277237 500.9952997691584Q840.7406259724411 487.3403697945591 840.7406259724411 470.73854253911674L840.7406259724411 470.73854253911674Q840.7406259724411 454.16589248447474 846.4010029277237 440.3942537066737Q852.0905570838069 426.6226149288726 862.2734001631554 416.64401225512694Q872.4562432425041 406.66540958138125 886.1111732171034 401.20927303170157Q899.7661031917029 395.75313648202194 915.7260320295359 395.75313648202194L915.7260320295359 395.75313648202194Q931.4817204617658 395.75313648202194 945.0491188339639 401.20927303170157Q958.5873400053616 406.66540958138125 968.682651482309 416.64401225512694Q978.7487857584559 426.6226149288726 984.5258715169404 440.3942537066737Q990.3029572754247 454.16589248447474 990.3029572754247 470.73854253911674L990.3029572754247 470.73854253911674Q990.3029572754247 487.3403697945591 984.5258715169404 500.9952997691584Q978.7487857584559 514.6502297437578 968.682651482309 524.6288324175034Q958.5873400053616 534.6074350912492 945.0491188339639 540.0635716409288Q931.4817204617658 545.5488853914089 915.7260320295359 545.5488853914089ZM915.7260320295359 527.4590208951447L915.7260320295359 527.4590208951447Q927.0759631409015 527.4590208951447 936.6460850034413 523.2575039798835Q946.1870296651806 519.0559870646221 953.1312034556819 511.49909205731177Q960.0753772461834 503.9421970500015 963.8392361494383 493.55511356504985Q967.6322722534936 483.13885287929776 967.6322722534936 470.73854253911674L967.6322722534936 470.73854253911674Q967.6322722534936 458.13399179333265 963.8392361494383 447.746908308381Q960.0753772461834 437.3598248234294 953.1312034556819 429.77375261531864Q946.1870296651806 422.2168576080083 936.6460850034413 418.015340692747Q927.0759631409015 413.81382377748565 915.7260320295359 413.81382377748565L915.7260320295359 413.81382377748565Q903.9676201069642 413.81382377748565 894.3099666420231 418.015340692747Q884.6523131770822 422.2168576080083 877.7081393865808 429.8904614185203Q870.7931427968798 437.56406522903234 867.1168154960261 447.951148713984Q863.4404881951725 458.3674093997361 863.4404881951725 470.73854253911674L863.4404881951725 470.73854253911674Q863.4404881951725 483.3430932849007 867.1168154960261 493.7593539706528Q870.7931427968798 504.1464374556044 877.7081393865808 511.7033324629148Q884.6523131770822 519.2894046710255 894.3099666420231 523.3742127830851Q903.9676201069642 527.4590208951447 915.7260320295359 527.4590208951447ZM1085.6832266920173 545.5488853914089L1085.6832266920173 545.5488853914089Q1075.8213328214733 545.5488853914089 1066.68886897094 542.6895197129672Q1057.527227919606 539.8593312353258 1049.3576116954869 534.8116754968521Q1041.1588182705673 529.7931969591789 1034.0104040744627 522.8490231686775Q1026.8619898783586 515.9048493781761 1020.7639549110694 507.9394735596598L1020.7639549110694 507.9394735596598L1032.5515440344416 510.04023201729046L1032.5515440344416 542.6019881105658L1013.411300309362 542.6019881105658L1013.411300309362 494.0803031794575L1025.8116106495431 493.4384047618481Q1031.501164805626 501.6371981867678 1038.3286297929258 508.02700516206113Q1045.1560947802254 514.4459893381547 1052.917230193139 518.8517466590192Q1060.678365606052 523.2575039798835 1068.6729186253688 525.5916800439174Q1076.6674716446855 527.8966789071512 1084.428607057599 527.8966789071512L1084.428607057599 527.8966789071512Q1092.189742470512 527.8966789071512 1098.2002458354 525.6792116463189Q1104.1815719994875 523.490921586287 1107.6536588947379 519.2894046710255Q1111.0965685891883 515.0878877557642 1111.0965685891883 509.3983335996811L1111.0965685891883 509.3983335996811Q1111.0965685891883 504.58409546761084 1108.5873293203517 500.58681895795246Q1106.0780900515151 496.5895424482941 1100.592776301035 493.11745555304344Q1095.1366397513552 489.64536865779274 1086.3251251096267 486.40669936894545Q1077.4844332670973 483.13885287929776 1064.8798825213134 479.78347478724874L1064.8798825213134 479.78347478724874Q1047.2568532378564 475.17347706078147 1035.9944537288916 468.637784081486Q1024.7612314207277 462.13126830299103 1019.5093352766511 453.40728526366365Q1014.2574391325744 444.71247942513673 1014.2574391325744 433.97526953057996L1014.2574391325744 433.97526953057996Q1014.2574391325744 422.2168576080083 1020.6764233086681 413.7262921750843Q1027.0662302839614 405.20654954135995 1037.4824909697136 400.47984301169095Q1047.8695744546649 395.75313648202194 1060.065644389243 395.75313648202194L1060.065644389243 395.75313648202194Q1072.8744355406302 395.75313648202194 1083.699177037588 399.95465339728327Q1094.5239185345463 404.1561703125446 1103.2187243730732 412.675912946269Q1111.9427074124005 421.16647837919294 1118.0407423796896 434.2086871369834L1118.0407423796896 434.2086871369834L1107.1284692803301 431.8745110729493L1107.1284692803301 398.70003376286496L1126.443776210212 398.70003376286496L1126.443776210212 446.579820276364L1114.6853642876408 447.2217186939734Q1108.7915697259546 435.8717875826077 1101.0304343130415 428.31489257529734Q1093.2401216993276 420.75799756798705 1084.1076578487941 417.08167026713335Q1074.9751939982607 413.40534296627965 1064.8798825213134 413.40534296627965L1064.8798825213134 413.40534296627965Q1056.914506702797 413.40534296627965 1050.6122313299052 415.7103418295133Q1044.3099559570132 418.015340692747 1040.6336286561595 422.33356641121003Q1036.9573013553058 426.6226149288726 1036.9573013553058 432.92489030176466L1036.9573013553058 432.92489030176466Q1036.9573013553058 437.56406522903234 1039.2623002185396 441.444632935489Q1041.567299081773 445.3252006419457 1046.498246017045 448.7972875371964Q1051.4583701531174 452.2693744324471 1059.1027967628293 455.30380331569137Q1066.776400573341 458.3674093997361 1077.717850873501 461.2851294797787L1077.717850873501 461.2851294797787Q1094.7281589401491 465.9243044070464 1107.2160008827318 472.02233937433544Q1119.7330200261144 478.091197140824 1126.764725419017 486.6109397745484Q1133.7964308119194 495.1306824082728 1133.7964308119194 507.29757514205045L1133.7964308119194 507.29757514205045Q1133.7964308119194 519.0559870646221 1127.4941554390275 527.6924385015482Q1121.1918800661356 536.2997127376739 1110.279606966776 540.9097104641412Q1099.3381566666167 545.5488853914089 1085.6832266920173 545.5488853914089ZM1293.4540735918504 545.7531257970119L1293.4540735918504 545.7531257970119Q1276.4437655252023 545.7531257970119 1262.467886341798 540.2969892473322Q1248.4920071583942 534.8116754968521 1238.1924552758437 524.7455412207053Q1227.922080594094 514.6502297437578 1222.436766843614 500.9077681667572Q1216.9806302939342 487.13612938895614 1216.9806302939342 470.73854253911674L1216.9806302939342 470.73854253911674Q1216.9806302939342 454.16589248447474 1222.6701844500171 440.51096250987536Q1228.3305614052997 426.85603253527603 1238.1049236734425 416.76072105832867Q1247.8792859415853 406.66540958138125 1260.6880770929724 401.20927303170157Q1273.4968682443591 395.75313648202194 1287.7936966365678 395.75313648202194L1287.7936966365678 395.75313648202194Q1302.9074866511887 395.75313648202194 1314.461658168157 400.47984301169095Q1326.015829685126 405.20654954135995 1334.2146231100455 412.7634445486703Q1342.413416534965 420.32033955598064 1347.0234142614327 429.1610313985097L1347.0234142614327 429.1610313985097L1337.9784820133004 426.4183745232696L1337.9784820133004 398.70003376286496L1357.11872573838 398.70003376286496L1357.11872573838 443.66210019632143L1343.2303781573773 444.4790618187333Q1338.824620836513 436.0760279882107 1331.7929154436101 429.04432259530796Q1324.7612100507076 422.01261720240535 1315.1035565857665 417.6943914839423Q1305.4167259200253 413.40534296627965 1292.6079347686382 413.40534296627965L1292.6079347686382 413.40534296627965Q1281.6956616692792 413.40534296627965 1272.1255398067392 417.2859106727363Q1262.584595145 421.16647837919294 1255.2319405432927 428.635841784102Q1247.8792859415853 436.0760279882107 1243.765300628725 446.6965290795657Q1239.6804925166657 457.31703017092076 1239.6804925166657 470.73854253911674L1239.6804925166657 470.73854253911674Q1239.6804925166657 483.5765108913041 1243.6777690263239 493.9635943762558Q1247.6458683351816 504.35067786120743 1254.998522936889 511.9367500693182Q1262.3511775385964 519.4936450766286 1272.1255398067392 523.5784531886882Q1281.899902074882 527.6924385015482 1293.4540735918504 527.6924385015482L1293.4540735918504 527.6924385015482Q1303.549385068798 527.6924385015482 1311.631469690516 525.8834520519217Q1319.713554312234 524.1036428030959 1326.1325384883276 520.9525051166497Q1332.5223454636207 517.8013674302038 1337.1615203908887 514.0375085269488L1337.1615203908887 514.0375085269488L1337.1615203908887 486.0857501601408L1291.149074728617 486.0857501601408L1291.149074728617 469.4839229046984L1357.11872573838 469.4839229046984L1357.11872573838 523.0532635742804Q1350.3787923534815 529.3555389471725 1340.7211388885407 534.5199034888478Q1331.0634854235996 539.6550908297229 1319.0716558946247 542.6895197129672Q1307.1090035664497 545.7531257970119 1293.4540735918504 545.7531257970119ZM1417.603062997663 493.2341643562451L1417.603062997663 493.2341643562451L1417.603062997663 476.8365775064057Q1425.3933756113765 466.53702562385536 1434.2048902531055 458.4549410021374Q1443.016404894834 450.37285638041936 1452.469817954172 445.85039025635336Q1461.9232310135098 441.3279241322873 1471.3766440728482 441.3279241322873L1471.3766440728482 441.3279241322873L1480.2173359153771 441.3279241322873L1480.2173359153771 483.5765108913041L1462.1566486199135 483.5765108913041L1462.1566486199135 461.7227874917851Q1455.620955640618 461.7227874917851 1448.268301038911 465.48664639504005Q1440.9156464372036 469.2796824990954 1433.15451102429 476.3113878919981Q1425.3933756113765 483.3430932849007 1417.603062997663 493.2341643562451ZM1446.8094409988894 542.8062285161689L1381.2774480011326 542.8062285161689L1381.2774480011326 526.2044012607264L1446.8094409988894 526.2044012607264L1446.8094409988894 542.8062285161689ZM1424.3429963825615 538.1962307897015L1403.5396522118576 538.1962307897015L1403.5396522118576 443.8663406019244L1424.3429963825615 443.8663406019244L1424.3429963825615 538.1962307897015ZM1423.0591995473428 460.4681678573668L1381.2774480011326 460.4681678573668L1381.2774480011326 443.8663406019244L1423.0591995473428 443.8663406019244L1423.0591995473428 460.4681678573668ZM1595.5548106794613 544.4985061625936L1595.5548106794613 544.4985061625936Q1589.4567757121722 544.4985061625936 1584.6133603793014 541.4349000785489Q1579.799122247231 538.4004711953046 1576.939756568789 532.5066766336186Q1574.109568091148 526.6420592727329 1574.109568091148 518.4432658478131L1574.109568091148 518.4432658478131L1574.109568091148 479.5792343816458Q1574.109568091148 472.02233937433544 1570.549949593496 467.49987325026945Q1566.9611538950435 462.9774071262034 1561.1840681365593 460.8766486685727Q1555.406982378075 458.77589021094207 1548.287745382771 458.77589021094207L1548.287745382771 458.77589021094207Q1538.834332323433 458.77589021094207 1528.9432612520886 461.2851294797787Q1519.0813673815446 463.82354594941575 1508.986055904597 468.02506286467707L1508.986055904597 468.02506286467707L1504.5802985837327 451.83171642044067Q1515.9302296950987 447.0174782883704 1527.6886416176703 444.18728981072906Q1539.447053540242 441.3279241322873 1550.7969846516075 441.3279241322873L1550.7969846516075 441.3279241322873Q1564.247674220604 441.3279241322873 1573.9053276855448 445.7628586539521Q1583.562981150486 450.1686159748164 1588.7273456921616 458.77589021094207Q1593.8625330330365 467.3831644470677 1593.8625330330365 480.42537320485815L1593.8625330330365 480.42537320485815L1593.8625330330365 516.7509882013885Q1593.8625330330365 522.2071247510681 1595.7590510850641 524.6288324175034Q1597.6555691370918 527.0505400839388 1601.0109472291406 527.0505400839388L1601.0109472291406 527.0505400839388Q1602.9074652811687 527.0505400839388 1604.5705657267927 526.4086416663295Q1606.2628433732175 525.7959204495205 1607.5174630076358 525.3582624375141L1607.5174630076358 525.3582624375141L1611.9232203285 540.2969892473322Q1609.6182214652663 541.7558492873536 1605.2999957468037 543.1271777249735Q1601.0109472291406 544.4985061625936 1595.5548106794613 544.4985061625936ZM1533.349018572953 545.7531257970119L1533.349018572953 545.7531257970119Q1524.1290231200182 545.7531257970119 1516.1344701007015 542.1643300985595Q1508.1399170813847 538.6047116009075 1503.413210551716 531.5730062080049Q1498.6865040220468 524.5413008151022 1498.6865040220468 514.2417489325519L1498.6865040220468 514.2417489325519Q1498.6865040220468 503.7379566443985 1504.6970073869347 496.4728336450924Q1510.6783335510218 489.23688784658674 1520.13174661036 485.5605605457331Q1529.585159669698 481.88423324487945 1540.2931923634542 481.88423324487945L1540.2931923634542 481.88423324487945Q1552.6935027036352 481.88423324487945 1561.9426753573703 484.71442172252074Q1571.162670810305 487.5446102001621 1581.0537418816493 491.7461271154234L1581.0537418816493 491.7461271154234L1581.0537418816493 505.1968166844198Q1569.9080511758866 500.3825785523495 1560.7755873253532 498.8070097091265Q1551.6431234748197 497.2314408659035 1543.8528108611063 497.2314408659035L1543.8528108611063 497.2314408659035Q1537.346295082611 496.9980232595001 1531.7734497297297 498.8945413115278Q1526.2297815776487 500.79105936355546 1522.6409858791963 504.35067786120743Q1519.0813673815446 507.9394735596598 1519.0813673815446 513.5998505149425L1519.0813673815446 513.5998505149425Q1519.0813673815446 518.4432658478131 1521.794847055984 521.7986439398621Q1524.5375039312244 525.1540220319112 1529.0599700552903 526.7295908751341Q1533.5824361793561 528.3051597183571 1538.6009147170294 528.3051597183571L1538.6009147170294 528.3051597183571Q1544.0862284675095 528.3051597183571 1551.0012250572108 526.1168696583252Q1557.945398847712 523.8994023974928 1565.619002658224 519.2894046710255Q1573.2634292679359 514.6502297437578 1581.0537418816493 507.73523315405686L1581.0537418816493 507.73523315405686L1580.6160838696428 522.0028843454652Q1573.496846874339 529.1512985415695 1565.619002658224 534.5199034888478Q1557.7411584421093 539.8593312353258 1549.6298966195905 542.8062285161689Q1541.5478119978725 545.7531257970119 1533.349018572953 545.7531257970119ZM1670.540216736556 545.7531257970119L1670.540216736556 545.7531257970119Q1657.7314255851688 545.7531257970119 1646.789975285009 539.3341416209182Q1635.87770218565 532.9443346456248 1629.254477603953 521.3901631286562Q1622.6312530222563 509.8359916116875 1622.6312530222563 494.6930243962665L1622.6312530222563 494.6930243962665Q1622.6312530222563 482.73037206809175 1626.5409979295132 473.0727186031508Q1630.4215656359702 463.38588793740934 1637.5699798320748 456.2666509421054Q1644.6892168273785 449.11823674600106 1654.0550982843151 445.2376690395444Q1663.3918025404514 441.3279241322873 1674.0998352342076 441.3279241322873L1674.0998352342076 441.3279241322873Q1685.0412855343675 441.3279241322873 1693.4443193648904 445.3252006419457Q1701.8473531954128 449.322477151604 1708.2371601707064 455.2162717132901Q1714.6561443468 461.0808890741757 1719.4995596796707 466.97468363586177L1719.4995596796707 466.97468363586177L1719.4995596796707 482.0884736504824Q1714.4519039411966 475.99043868319336 1708.032919765103 470.73854253911674Q1701.64311278981 465.48664639504005 1694.2904581881025 462.24797710619276Q1686.9378035863951 458.980130616545 1678.7390101614756 458.980130616545L1678.7390101614756 458.980130616545Q1671.1821151541653 458.980130616545 1664.8798397812734 461.6060786885834Q1658.577564408381 464.2320267606217 1653.8508578787123 468.8712016878894Q1649.1241513490431 473.48119941435675 1646.5857348794061 480.1044239960534Q1644.0764956105695 486.72764857775013 1644.0764956105695 494.4887839906634L1644.0764956105695 494.4887839906634Q1644.0764956105695 504.58409546761084 1648.0737721202277 512.2285220773224Q1652.0418714290859 519.9021258878345 1659.306994428392 524.1036428030959Q1666.5429402268974 528.3051597183571 1675.5878724750296 528.1009193127542L1675.5878724750296 528.1009193127542Q1684.1951467111553 527.8966789071512 1691.8687505216672 524.2203516062975Q1699.542354332179 520.5440243054438 1706.3698193194791 514.8544701493608Q1713.1972843067783 509.19409319407816 1718.857661262061 503.53371623879553L1718.857661262061 503.53371623879553L1718.857661262061 519.4936450766286Q1715.064625158006 523.490921586287 1710.133678222734 527.9842105095524Q1705.2027312874616 532.5066766336186 1699.3089367257758 536.6206619464785Q1693.4443193648904 540.7054700585381 1686.2959051687858 543.2147093273747Q1679.1474909726817 545.7531257970119 1670.540216736556 545.7531257970119ZM1730.207592373427 544.9069869737996L1730.207592373427 544.9069869737996Q1720.3165213020825 544.9069869737996 1714.0142459291906 538.1962307897015Q1707.7119705562986 531.4562974048031 1707.7119705562986 519.0559870646221L1707.7119705562986 519.0559870646221L1707.7119705562986 398.70003376286496L1727.9025935101931 398.70003376286496L1727.9025935101931 517.3928866189979Q1727.9025935101931 522.8490231686775 1729.8866431646225 525.1540220319112Q1731.8706928190513 527.4590208951447 1734.8175900998945 527.4590208951447L1734.8175900998945 527.4590208951447Q1737.1225889631278 527.4590208951447 1738.8148666095526 526.9338312807372Q1740.5071442559774 526.4086416663295 1741.7617638903957 525.7959204495205L1741.7617638903957 525.7959204495205L1745.9632808056567 540.9097104641412Q1743.6582819424234 542.397747704963 1739.3400562239603 543.6523673393813Q1735.0218305054973 544.9069869737996 1730.207592373427 544.9069869737996ZM1726.0060754581655 415.3018610183073L1685.4497663455736 415.3018610183073L1685.4497663455736 398.70003376286496L1726.0060754581655 398.70003376286496L1726.0060754581655 415.3018610183073ZM1813.8002726666473 545.7531257970119L1813.8002726666473 545.7531257970119Q1803.5298979848976 545.7531257970119 1793.7555357167548 542.4852793073642Q1783.981173448612 539.2466100185169 1776.103329232497 532.9443346456248Q1768.2254850163818 526.6420592727329 1763.6154872899147 517.2761778157961Q1758.9763123626467 507.9394735596598 1758.9763123626467 495.7434036250818L1758.9763123626467 495.7434036250818Q1758.9763123626467 482.73037206809175 1763.7030188923159 472.6350605911444Q1768.429725421985 462.56892631499744 1776.4242784413018 455.62475252449605Q1784.3896542598181 448.68057873399465 1794.280725331162 445.004251433141Q1804.1426192017066 441.3279241322873 1814.64641148986 441.3279241322873L1814.64641148986 441.3279241322873Q1827.2509622356438 441.3279241322873 1836.9086157005845 445.2376690395444Q1846.595446366326 449.11823674600106 1852.139114518407 456.1499421389037Q1857.7119598712884 463.1816475318064 1857.7119598712884 472.6350605911444L1857.7119598712884 472.6350605911444Q1857.7119598712884 482.2927140560854 1851.9348741128042 488.8284070353808Q1846.1577883543196 495.33492281387583 1836.9086157005845 498.5735921027231Q1827.6886202476503 501.8414385923708 1817.3890683650998 501.8414385923708L1817.3890683650998 501.8414385923708Q1804.5802772137126 501.8414385923708 1794.3682569335633 498.8070097091265Q1784.1854138542149 495.7434036250818 1774.5277603892741 491.33764630421746L1774.5277603892741 491.33764630421746L1774.3235199836713 478.73309555843343Q1785.4400334886332 483.5765108913041 1794.8059149455698 485.4438517425314Q1804.1426192017066 487.3403697945591 1812.9833110442355 487.3403697945591L1812.9833110442355 487.3403697945591Q1819.6940672283336 487.3403697945591 1825.0626721756116 485.6772693489348Q1830.4020999220897 483.9849917025101 1833.7574780141385 480.6296136104611Q1837.1420333069882 477.2742355184121 1837.1420333069882 472.6350605911444L1837.1420333069882 472.6350605911444Q1837.1420333069882 465.9243044070464 1831.248238745302 461.81031909418635Q1825.3544441836161 457.7255109821267 1816.1344487306815 457.7255109821267L1816.1344487306815 457.7255109821267Q1809.1902749401802 457.7255109821267 1802.5670503584834 460.35145905416505Q1795.9438257767865 462.9774071262034 1790.6043980303089 467.8208224590741Q1785.2357930830303 472.6350605911444 1781.9971237941832 479.46252557844406Q1778.7292773045351 486.2899905657437 1778.7292773045351 495.1306824082728L1778.7292773045351 495.1306824082728Q1778.7292773045351 505.4010570900228 1783.7769330430087 512.8704204949317Q1788.8245887814828 520.3397838998409 1796.9066734032008 524.2203516062975Q1804.9887580249188 528.1009193127542 1814.4421710842566 528.1009193127542L1814.4421710842566 528.1009193127542Q1826.2005830068283 528.1009193127542 1835.1288064517585 524.2203516062975Q1844.057029896689 520.3397838998409 1851.0012036871904 514.4459893381547L1851.0012036871904 514.4459893381547L1859.812718328919 528.1009193127542Q1853.9481009680335 533.1485750512279 1847.1206359807338 537.1458515608863Q1840.2931709934342 541.1139508697441 1831.977668765313 543.4481269337782Q1823.6913437379917 545.7531257970119 1813.8002726666473 545.7531257970119ZM1910.4351617176585 493.2341643562451L1910.4351617176585 493.2341643562451L1910.4351617176585 476.8365775064057Q1918.225474331372 466.53702562385536 1927.0369889731005 458.4549410021374Q1935.8776808156294 450.37285638041936 1945.3310938749678 445.85039025635336Q1954.7845069343057 441.3279241322873 1964.237919993644 441.3279241322873L1964.237919993644 441.3279241322873L1973.049434635372 441.3279241322873L1973.049434635372 483.5765108913041L1954.9887473399085 483.5765108913041L1954.9887473399085 461.7227874917851Q1948.4822315614138 461.7227874917851 1941.1295769597064 465.48664639504005Q1933.776922357999 469.2796824990954 1925.9866097442855 476.3113878919981Q1918.225474331372 483.3430932849007 1910.4351617176585 493.2341643562451ZM1939.6415397188844 542.8062285161689L1874.109546721128 542.8062285161689L1874.109546721128 526.2044012607264L1939.6415397188844 526.2044012607264L1939.6415397188844 542.8062285161689ZM1917.1750951025565 538.1962307897015L1896.371750931853 538.1962307897015L1896.371750931853 443.8663406019244L1917.1750951025565 443.8663406019244L1917.1750951025565 538.1962307897015ZM1915.9204754681382 460.4681678573668L1874.109546721128 460.4681678573668L1874.109546721128 443.8663406019244L1915.9204754681382 443.8663406019244L1915.9204754681382 460.4681678573668Z " fill="#b88746" transform="matrix(0.44347594976508714,0,0,0.44347594976508714,0,91.23232075501559)"/></g></svg>